<?xml version="1.0" encoding="utf-8"?>
<!-- Generator: Adobe Illustrator 23.0.2, SVG Export Plug-In . SVG Version: 6.00 Build 0)  -->
<svg version="1.1" id="Réteg_1" xmlns="http://www.w3.org/2000/svg" xmlns:xlink="http://www.w3.org/1999/xlink" x="0px" y="0px"
	 viewBox="0 0 721.2 721.2" style="enable-background:new 0 0 721.2 721.2;" xml:space="preserve">
<style type="text/css">
	.st0{fill:#042236;}
	.st1{fill:#BC956C;}
	.st2{fill:#FEEECA;}
</style>
<g>
	<circle class="st0" cx="360.6" cy="360.6" r="360.6"/>
	<g>
		<g>
			<g>
				<path class="st1" d="M169.3,255.2c1.4,7.9,2.8,15.8,3.9,23.4c0.3,2.5,2.5,5.1,2.4,7.7c-0.6,3-2.9,4.3-5.7,6.5
					c-2.4,1.5-4.9,3.1-9.3,5.2c-1,0.5-2.1,0.6-3.1,0.2c-8-2.7-17.3-11.5-12.6-19.3c1.3-2,3-3.8,4.1-5.7c4.4-7.6,10.3-14.1,17.5-19.3
					C167.6,253.2,169.2,253.9,169.3,255.2L169.3,255.2z"/>
				<path class="st1" d="M194.4,185.8c1,5.8,2,11.5,2.8,17.1c0.2,1.9,1.8,3.7,1.8,5.6c-0.5,2.1-2.1,3.1-4.2,4.7
					c-1.7,1.1-3.6,2.3-6.8,3.8c-0.7,0.4-1.5,0.4-2.3,0.2c-5.9-2-12.7-8.4-9.2-14.1c1-1.5,2.2-2.8,3-4.1c3.2-5.6,7.5-10.3,12.8-14.1
					C193.1,184.4,194.3,184.9,194.4,185.8L194.4,185.8z"/>
			</g>
			<g>
				<path class="st1" d="M551.9,255.2c-1.4,7.9-2.8,15.8-3.9,23.4c-0.3,2.5-2.5,5.1-2.4,7.7c0.6,3,2.9,4.3,5.7,6.5
					c2.3,1.5,4.9,3.1,9.3,5.2c1,0.5,2.1,0.6,3.1,0.2c8-2.7,17.3-11.5,12.6-19.3c-1.3-2-3.1-3.8-4.1-5.7
					c-4.4-7.6-10.3-14.1-17.4-19.3C553.6,253.2,552,253.9,551.9,255.2L551.9,255.2z"/>
				<path class="st1" d="M526.8,185.8c-1,5.8-2,11.5-2.8,17.1c-0.2,1.9-1.8,3.7-1.8,5.6c0.5,2.1,2.1,3.1,4.2,4.7
					c1.7,1.1,3.6,2.3,6.8,3.8c0.7,0.4,1.5,0.4,2.3,0.2c5.9-2,12.7-8.4,9.2-14.1c-1-1.5-2.2-2.8-3-4.1c-3.2-5.6-7.5-10.3-12.8-14.1
					C528.1,184.4,526.9,184.9,526.8,185.8L526.8,185.8z"/>
			</g>
		</g>
		<g>
			<g>
				<path class="st2" d="M423.5,340c1.1-9.6,1.3-15.9,1.3-15.9s0-48.8-19.2-65.3c0,0-26.3-8.1-28.2-10.8L364,264.8
					c0,0-2,2.5-3.4,4.2c-1.3-1.7-3.4-4.2-3.4-4.2L343.7,248c-1.9,2.7-28.2,10.8-28.2,10.8c-19.2,16.5-19.2,65.3-19.2,65.3
					s0.2,6.3,1.3,15.9H423.5z"/>
				<path class="st0" d="M292.9,340h9.7c-0.7-5.4-1.3-10.6-1.7-15.2c-0.1-0.8-0.1-2.2-0.1-3c0.4-17.2,1.9-35.2,9.2-51
					c1.8-3.7,4-7.1,6.8-9.9c8.8-3.2,17.7-6.1,25.9-10.6c0.3-0.2,0.5-0.3,0.7-0.5c5.5,6.3,11.4,12.9,17,19.1
					c-5.2-7.3-10.7-15-16.1-22.2l-1.9,0.4c-0.1,0,0,0-0.1,0.1c-0.1,0.1-0.2,0.1-0.3,0.2c-4.1,2.1-8.6,3.3-13,4.7
					c-4.9,1.5-9.9,3-14.9,4.3c-4,3.2-7.2,7.2-9.6,11.5c-8.8,16.4-11.6,35.2-12.8,53.5c0,1.1-0.1,2.6-0.1,3.7
					C292.1,329.9,292.4,334.9,292.9,340z"/>
				<path class="st0" d="M404.2,261c2.8,2.8,5,6.2,6.8,9.9c5.6,11.7,7.5,24.9,8.6,37.8c0.4,5.4,0.7,10.8,0.5,16.1
					c-0.4,4.5-0.9,9.7-1.7,15.2h9.8c0.5-5.8,0.8-11.4,1-16.7c-1.1-20.6-5.4-52.5-22-66.4l-0.5-0.4l-0.5-0.1
					c-4.8-1.3-9.7-2.7-14.5-4.2c-4.5-1.5-9.2-2.6-13.3-4.9l-1.9-0.4l-0.2,0.3c-5.3,7.1-10.7,14.7-15.8,21.9
					c5.6-6.2,11.5-12.8,17-19.1C385.9,254.8,395.3,257.6,404.2,261z"/>
			</g>
			<g>
				<g>
					<path class="st1" d="M297.7,340c-1.4-27,0.2-61.5,14-82.7c0,0-27.1-1.9-48.5-15.7c0,0-4.3,4.9-9.4,13.6
						c-15.3,26.1-19.6,56.1-12.9,84.8L297.7,340L297.7,340z"/>
					<path class="st0" d="M247.1,340c-6.9-27.9-2.7-56.8,11.9-81.8c2.1-3.7,4.1-6.6,5.7-8.7c13.6,7.6,28.3,11.1,37.5,12.6
						c-10.5,22.4-11.8,53.2-10.6,77.9h12.1c-1.4-26.2,0-59.5,13-79.5c1.2-1.8,1.3-4,0.3-5.9c-1-1.9-2.8-3.2-5-3.3
						c-0.3,0-25.9-2-45.7-14.8c-2.5-1.6-5.8-1.1-7.8,1.1c-0.2,0.2-4.7,5.4-10,14.5C233,279,228.1,309.9,234.8,340L247.1,340
						L247.1,340z"/>
				</g>
				<g>
					<path class="st1" d="M423.5,340h56.8c6.7-28.7,2.3-58.7-12.9-84.8c-5.1-8.7-9.4-13.6-9.4-13.6c-21.4,13.8-48.5,15.7-48.5,15.7
						C423.3,278.4,424.9,313,423.5,340z"/>
					<path class="st0" d="M417.5,340h12.1c1.2-24.7,0-55.6-10.6-77.9c9.2-1.5,23.9-5,37.5-12.6c1.5,2.1,3.5,5.1,5.7,8.7
						c14.6,25,18.8,53.9,11.9,81.8h12.3c6.7-30.1,1.8-61-13.9-87.9c-5.3-9.1-9.8-14.3-10-14.5c-2-2.3-5.3-2.7-7.8-1.1
						c-19.8,12.8-45.4,14.7-45.7,14.8c-2.1,0.1-4,1.4-5,3.3c-1,1.9-0.8,4.2,0.3,5.9C417.4,280.5,418.8,313.8,417.5,340z"/>
				</g>
			</g>
			<g>
				<g>
					
						<ellipse transform="matrix(0.1602 -0.9871 0.9871 0.1602 51.7522 488.8274)" class="st2" cx="313.1" cy="214" rx="57.7" ry="57.7"/>
					<path class="st0" d="M313.1,277.7c-35.1,0-63.7-28.6-63.7-63.7s28.6-63.7,63.7-63.7s63.7,28.6,63.7,63.7
						S348.3,277.7,313.1,277.7z M313.1,162.3c-28.5,0-51.7,23.2-51.7,51.7s23.2,51.7,51.7,51.7s51.7-23.2,51.7-51.7
						S341.7,162.3,313.1,162.3z"/>
				</g>
				<g>
					<circle class="st2" cx="408" cy="214" r="57.7"/>
					<path class="st0" d="M408,277.7c-35.1,0-63.7-28.6-63.7-63.7s28.6-63.7,63.7-63.7s63.7,28.6,63.7,63.7S443.2,277.7,408,277.7z
						 M408,162.3c-28.5,0-51.7,23.2-51.7,51.7s23.2,51.7,51.7,51.7s51.7-23.2,51.7-51.7S436.6,162.3,408,162.3z"/>
				</g>
			</g>
			<g>
				<g>
					<circle class="st2" cx="313.1" cy="214" r="31"/>
					<path class="st0" d="M313.1,251c-20.4,0-37-16.6-37-37c0-20.4,16.6-37,37-37s37,16.6,37,37C350.1,234.4,333.5,251,313.1,251z
						 M313.1,189c-13.8,0-25,11.2-25,25s11.2,25,25,25c13.8,0,25-11.2,25-25C338.1,200.2,326.9,189,313.1,189z"/>
				</g>
				<g>
					<circle class="st2" cx="408" cy="213.6" r="31"/>
					<path class="st0" d="M408,250.6c-20.4,0-37-16.6-37-37s16.6-37,37-37s37,16.6,37,37S428.4,250.6,408,250.6z M408,188.6
						c-13.8,0-25,11.2-25,25s11.2,25,25,25c13.8,0,25-11.2,25-25S421.8,188.6,408,188.6z"/>
				</g>
			</g>
			<g>
				<path class="st1" d="M360.6,210.6c1.2,1,2.4,2,2.4,2s11.6,9.8,14,32.3c0,0,2.1,9.4-11.2,27.4c0,0-3.4,5.2-5.2,8
					c-1.8-2.8-5.2-8-5.2-8c-13.3-18-11.2-27.4-11.2-27.4c2.5-22.5,14-32.3,14-32.3S359.4,211.6,360.6,210.6z"/>
				<path class="st0" d="M360.6,286.4L360.6,286.4c-2,0-3.9-1-5-2.7l-5.1-7.9c-13.3-18.1-12.7-28.9-12.2-31.7
					c2.7-24.5,15.6-35.5,16.1-36l2.4-2c2.2-1.9,5.5-1.9,7.7,0l2.4,2c0.5,0.5,13.4,11.5,16.1,36c0.5,2.9,1.1,13.6-12.2,31.7l-5.1,7.9
					C364.5,285.3,362.6,286.4,360.6,286.4z M350.1,246.1c-0.1,1.1-0.1,8.8,10.2,22.6c0.1,0.1,0.2,0.2,0.2,0.3l0.2,0.3l0.2-0.3
					c0.1-0.1,0.1-0.2,0.2-0.3c10.3-13.9,10.2-21.6,10.2-22.6c-0.1-0.2,0-0.2-0.1-0.5c-1.6-15.1-7.6-23.6-10.5-26.8
					c-2.8,3.2-8.8,11.7-10.5,26.8C350.1,245.9,350.1,245.9,350.1,246.1z M371.2,246.2L371.2,246.2L371.2,246.2z M350,246.2
					L350,246.2L350,246.2z M344.1,244.9L344.1,244.9L344.1,244.9z"/>
			</g>
			<g>
				<path class="st1" d="M360.6,173.5c-1-1.1-2-2.1-2-2.1c-9.8-10.4-86.2-29.9-86.2-29.9c-62.8-13-18.5,15.8-18.5,15.8
					s7.9,5.6,60.3,31.5l45,22c0,0,0.7,0.4,1.5,0.7c0.7-0.4,1.5-0.7,1.5-0.7l45-22c52.4-25.9,60.3-31.5,60.3-31.5
					s44.2-28.7-18.5-15.8c0,0-76.3,19.4-86.2,29.9C362.6,171.3,361.6,172.4,360.6,173.5z"/>
				<path class="st0" d="M360.6,218.2l-49.1-24c-49.4-24.4-59.5-31-61-32c-0.7-0.4-4.9-3.2-8.8-6.6c-3.1-2.6-11.3-9.7-8.3-17
					c3.1-7.6,14-8.4,40.3-3l0.3,0.1c0.2,0,19.4,5,39.6,11.1c32.3,9.8,43,15.4,47.1,18.4c4.1-3,14.7-8.6,47.1-18.4
					c20.2-6.1,39.5-11,39.6-11.1l0.3-0.1c26.2-5.4,37.2-4.6,40.3,3c3,7.3-5.2,14.4-8.3,17c-4,3.4-8.2,6.2-8.8,6.6
					c-1.5,1-11.6,7.5-61,31.9L360.6,218.2z M246.9,144.1c2.4,2.4,6.3,5.6,10.2,8.1l0.2,0.1c0.3,0.2,9.1,6.1,59.4,31l43.8,21.4
					l43.8-21.4c50.3-24.9,59.1-30.8,59.4-31.1l0.2-0.1c3.9-2.5,7.8-5.7,10.2-8.1c-3.7-0.1-10.8,0.5-24.1,3.2
					c-36.7,9.3-77.7,22.4-83.1,28.1l-6.4,6.8l-6.4-6.8c-5.4-5.7-46.5-18.8-83.1-28.1C257.7,144.6,250.6,144.1,246.9,144.1z"/>
			</g>
			<g>
				<circle class="st0" cx="316.1" cy="207.2" r="18"/>
				<circle class="st0" cx="405.1" cy="207.2" r="18"/>
			</g>
			<g>
				<circle class="st2" cx="403.1" cy="203" r="5.9"/>
				<circle class="st2" cx="318.1" cy="203" r="5.9"/>
			</g>
			<g>
				<path class="st0" d="M393.2,289.2c-1.7,5.3-4.2,10.3-7.5,14.9c-1.3,1.7-2.1,3.9-3.7,5.3c-3.4,2.5-7.7,3-11.8,1.2
					c-0.4-0.2-0.6-0.6-0.5-1.1c0.3-2.2,0.8-3.6,1.3-5c1-2.5,2.1-4.6,4.6-5.7c1.2-0.5,2.4-1,3.5-1.6l6.5-4.3c2.2-1.4,4.4-3,6.7-4.5
					C392.7,288.1,393.4,288.6,393.2,289.2L393.2,289.2z"/>
				<path class="st0" d="M329,288.5c3.9,2.6,9.3,6.2,13.2,8.7c2,1.3,4.9,1.7,6.2,3.9c1.8,2.6,2.6,5,3.2,8.5c0.1,0.4-0.2,0.8-0.5,1
					c-1.9,0.9-3.8,1.1-5.4,1c-2.4-0.2-4.6-0.8-6.4-2.3c-1.7-1.4-2.5-3.7-3.7-5.3c-3.3-4.6-5.8-9.6-7.5-14.9
					C327.8,288.6,328.5,288.1,329,288.5L329,288.5z"/>
			</g>
			<g>
				<g>
					<path class="st0" d="M379.9,325.4c-0.8,3.3-2.2,6.4-4.2,9.2c-1,1.3-1.6,3.6-3.6,3.7c-2.5,0.2-4.6-0.8-6.7-2.9
						c-0.3-0.3-0.4-0.7-0.4-1.1c0.1-1.9,0.3-3,0.5-4.1c0.3-1.3,0.5-2.3,1.4-3c0.9-0.4,2.2,0,3.1-0.3c1.3-0.4,2.8-0.7,4.3-1
						c1.5-0.3,3.1-0.8,4.7-1.1C379.5,324.5,380,324.9,379.9,325.4L379.9,325.4z"/>
					<path class="st0" d="M404,326.7c-1.3,3.2-3.3,6-5.7,8.3c-1.2,1.1-2.2,3.3-4.2,3c-2.5-0.3-4.4-1.5-6-4c-0.2-0.4-0.3-0.8-0.2-1.2
						c0.4-1.8,0.8-3,1.2-4c0.6-1.3,0.9-2.2,1.9-2.7c1-0.3,2.2,0.4,3.1,0.2c1.4-0.1,2.8-0.2,4.4-0.3c1.6-0.1,3.2-0.2,4.8-0.3
						C403.8,325.8,404.2,326.3,404,326.7L404,326.7z"/>
				</g>
				<g>
					<path class="st0" d="M342.7,324.6c3,0.7,6,1.4,8.9,2.2c1,0.3,2.2-0.1,3.1,0.3c1,0.7,1.1,1.7,1.4,3c0.2,1.1,0.4,2.2,0.5,4.1
						c0,0.4-0.1,0.8-0.4,1.1c-2,2.2-4.1,3.1-6.7,2.9c-2-0.1-2.6-2.4-3.6-3.7c-2.1-2.7-3.5-5.8-4.2-9.2
						C341.7,324.9,342.2,324.4,342.7,324.6L342.7,324.6z"/>
					<path class="st0" d="M318.4,325.8c3.1,0.2,6.2,0.3,9.2,0.6c0.7,0.1,1.5-0.2,2.2-0.3c0.7-0.1,1.3,0,1.7,0.6
						c1.3,1.8,1.7,3.5,2.4,6.2c0.1,0.4,0,0.8-0.2,1.1c-1,1.6-2.1,2.4-3.1,3.1c-1.8,1-3.9,1.5-5.3,0c-1.6-2.1-3.6-3.6-5.1-5.8
						c-0.9-1.4-1.8-2.8-2.5-4.5C317.5,326.3,317.9,325.7,318.4,325.8L318.4,325.8z"/>
				</g>
			</g>
			<path class="st0" d="M269.1,275.3c0.5,3.1,1.1,6.1,1.5,9.1c0.1,1,1,2,0.9,3c-0.3,1.1-1.1,1.7-2.2,2.5c-0.9,0.6-1.9,1.2-3.6,2
				c-0.4,0.2-0.8,0.2-1.2,0.1c-3.1-1.1-6.7-4.5-4.9-7.5c0.5-0.8,1.2-1.5,1.6-2.2c1.7-3,4-5.5,6.8-7.5
				C268.4,274.5,269,274.8,269.1,275.3L269.1,275.3z"/>
			<path class="st0" d="M276.9,298.8c1.5,2.7,3.1,5.4,4.5,8c0.4,0.9,1.6,1.5,1.9,2.5c0.2,1.2-0.5,2-1.3,3.1
				c-0.7,0.9-1.4,1.8-2.7,3.1c-0.3,0.3-0.7,0.5-1.1,0.5c-3,0-5.1-1-6.7-2.9c-1.3-1.5,0-3.5,0.3-5.1c0.6-3.3,1.9-6.5,3.9-9.3
				C276,298.3,276.6,298.3,276.9,298.8L276.9,298.8z"/>
			<path class="st0" d="M260.8,315.7c1.9,2.5,3.8,4.9,5.6,7.3c0.5,0.8,1.8,1.3,2.2,2.2c0.3,1.1-0.2,2-0.8,3.3c-0.5,1-1.1,2-2.2,3.5
				c-0.2,0.3-0.6,0.6-1,0.6c-3,0.4-5.2-0.2-7-2c-1.5-1.4-0.5-3.5-0.5-5.1c0.1-3.4,1-6.7,2.5-9.8
				C259.8,315.4,260.5,315.3,260.8,315.7L260.8,315.7z"/>
			<g>
				<path class="st0" d="M453.2,274.8c2.8,2,5.1,4.5,6.8,7.5c0.8,1.4,2.7,2.8,2,4.7c-0.8,2.4-2.5,3.9-5.3,5
					c-0.4,0.1-0.8,0.1-1.2-0.1c-1.7-0.8-2.8-1.5-3.7-2.1c-1.1-0.8-2-1.4-2.2-2.5c0-1,0.8-2,0.9-3c0.2-1.4,0.4-2.8,0.7-4.3
					c0.3-1.5,0.5-3.1,0.8-4.8C452.2,274.8,452.8,274.5,453.2,274.8L453.2,274.8z"/>
				<path class="st0" d="M445.5,298.7c2,2.8,3.3,6,3.9,9.3c0.3,1.6,1.6,3.6,0.3,5.1c-1.6,2-3.7,2.9-6.7,2.9c-0.4,0-0.8-0.2-1.1-0.4
					c-1.3-1.3-2.1-2.3-2.8-3.2c-0.8-1.2-1.4-2-1.3-3.1c0.3-1,1.5-1.6,1.9-2.5c0.6-1.2,1.3-2.5,2.1-3.8c0.8-1.3,1.5-2.8,2.4-4.2
					C444.6,298.3,445.2,298.3,445.5,298.7L445.5,298.7z"/>
				<path class="st0" d="M461.6,315.8c1.5,3.1,2.4,6.4,2.5,9.8c0.1,1.6,1,3.8-0.5,5.1c-1.8,1.7-4,2.3-7,2c-0.4-0.1-0.8-0.3-1-0.6
					c-1.1-1.5-1.8-2.6-2.3-3.5c-0.6-1.3-1.1-2.1-0.8-3.3c0.5-0.9,1.7-1.4,2.2-2.2c0.8-1.1,1.7-2.3,2.6-3.5c1-1.2,1.9-2.5,3-3.8
					C460.7,315.3,461.4,315.4,461.6,315.8L461.6,315.8z"/>
			</g>
		</g>
	</g>
	<g>
		<path class="st2" d="M100.1,367.4c11.5,0,20.6,2.3,27.5,7c6.8,4.7,10.2,11.6,10.2,20.8c0,6.8-1.7,12.5-5,17
			c-3.4,4.5-7.9,8-13.6,10.2s-12.3,3.4-19.7,3.4l-3.5-11.7c9.1,0,17.2,1.3,24.2,3.8c7,2.5,12.6,6.1,16.7,10.7
			c4.1,4.7,6.1,10.2,6.1,16.7c0,6-1.1,11.1-3.2,15.2c-2.1,4.2-5,7.5-8.7,10c-3.6,2.5-7.8,4.4-12.4,5.5c-4.6,1.2-9.4,1.7-14.3,1.7
			H67.7V367.4L100.1,367.4L100.1,367.4z M102.7,412.6c4.3,0,7.5-1.3,9.5-3.9c2-2.6,3.1-5.5,3.1-8.8c0-3.8-1.3-6.7-3.8-8.5
			c-2.5-1.9-6-2.8-10.3-2.8H89.5v24.2L102.7,412.6L102.7,412.6z M103.4,457.6c3.2,0,6.1-0.4,8.7-1.3c2.6-0.8,4.6-2.2,6.1-4
			s2.3-4.2,2.3-7c0-3.2-0.9-5.6-2.7-7.3c-1.8-1.7-4.1-2.8-7-3.5c-2.9-0.7-5.8-1-8.9-1H89.5v24H103.4z"/>
		<path class="st2" d="M147.1,477.8l49.8-114.8h1.2l49.8,114.8h-25.2l-31.8-80.7l15.8-10.8l-38.1,91.5H147.1z M181.1,437.9h33.1
			l7.6,18.3h-47.5L181.1,437.9z"/>
		<path class="st2" d="M347.5,466.7c-1.3,1.4-3.3,2.8-6.2,4.3c-2.8,1.5-6,2.8-9.7,4c-3.7,1.2-7.4,2.2-11.2,2.9s-7.4,1.1-10.8,1.1
			c-9,0-17.1-1.3-24.3-4c-7.2-2.7-13.3-6.3-18.5-11.1c-5.1-4.8-9-10.4-11.7-16.9c-2.7-6.5-4-13.6-4-21.3c0-10.1,1.5-18.9,4.6-26.3
			c3.1-7.5,7.2-13.7,12.4-18.6s11.3-8.6,18.2-11c6.8-2.4,14-3.6,21.5-3.6c7.1,0,13.6,0.8,19.5,2.3c5.9,1.5,10.9,3.5,15,5.8l-7,20.3
			c-1.8-1-4.2-2-7.2-3s-6-1.8-9.2-2.5c-3.1-0.7-5.8-1-8.3-1c-6,0-11.3,0.8-15.9,2.3c-4.6,1.5-8.5,3.8-11.6,6.8s-5.5,6.7-7.1,11.2
			c-1.6,4.5-2.4,9.6-2.4,15.5c0,5.2,0.9,9.9,2.7,14s4.3,7.7,7.6,10.6c3.3,2.9,7.1,5.1,11.5,6.6s9.4,2.3,14.8,2.3
			c3.1,0,6-0.2,8.5-0.7s4.8-1.2,6.6-2.2v-13.3h-19.1v-21h41.1V466.7z"/>
		<path class="st2" d="M364,422.8c0-7.6,1.5-14.8,4.3-21.6c2.9-6.8,6.9-12.8,12.1-18.1c5.2-5.3,11.1-9.4,17.9-12.4
			s14.1-4.5,21.9-4.5c7.7,0,15,1.5,21.8,4.5s12.8,7.1,18.1,12.4s9.3,11.3,12.3,18.1c3,6.8,4.4,14,4.4,21.6c0,7.8-1.5,15.1-4.4,21.9
			c-3,6.8-7,12.8-12.3,17.9c-5.3,5.2-11.3,9.2-18.1,12.1c-6.8,2.9-14,4.3-21.8,4.3c-7.8,0-15.1-1.5-21.9-4.3
			c-6.8-2.9-12.8-6.9-17.9-12.1c-5.2-5.2-9.2-11.1-12.1-17.9C365.4,437.9,364,430.6,364,422.8z M386.5,422.8c0,4.9,0.9,9.5,2.6,13.7
			s4.2,8,7.3,11.3c3.2,3.3,6.8,5.8,11,7.6c4.2,1.8,8.7,2.7,13.6,2.7c4.7,0,9.1-0.9,13.1-2.7s7.6-4.3,10.6-7.6s5.3-7,7-11.3
			s2.5-8.8,2.5-13.7c0-5-0.9-9.7-2.6-14c-1.8-4.3-4.2-8.1-7.2-11.3s-6.6-5.8-10.7-7.6s-8.5-2.7-13.3-2.7s-9.3,0.9-13.3,2.7
			s-7.7,4.3-10.8,7.6s-5.5,7-7.2,11.3C387.3,413.1,386.5,417.8,386.5,422.8z"/>
		<path class="st2" d="M497,367.4h21.8v89.4h51.9v21H497V367.4z"/>
		<path class="st2" d="M602.3,443.5l-40.7-76h26.8l28.5,57.3l-6.5,0.5l28.1-57.8h26.8l-41.4,76v34.3h-21.8L602.3,443.5L602.3,443.5z
			"/>
	</g>
	<g>
		<path class="st2" d="M305,527.6v51.8h-12.5v-51.8H305z M300.4,527.6h10.1c4.4,0,8.1,0.7,11.1,2s5.2,3.3,6.8,5.8s2.3,5.5,2.3,9.1
			c0,3.4-0.8,6.4-2.3,9c-1.5,2.5-3.8,4.5-6.8,5.8c-3,1.4-6.7,2-11.1,2h-10.1v-10.3h10.1c2.5,0,4.5-0.6,5.9-1.7s2.2-2.8,2.2-4.9
			c0-2.2-0.7-3.8-2.2-5c-1.4-1.1-3.4-1.7-5.9-1.7h-10.1V527.6z"/>
		<path class="st2" d="M350.8,527.6v33.9c0,2.6,0.7,4.7,2.1,6.4c1.4,1.6,3.5,2.4,6.2,2.4c2.8,0,4.9-0.8,6.3-2.4s2.1-3.8,2.1-6.4
			v-33.9h12.5v34.8c0,3.3-0.5,6.1-1.6,8.5c-1.1,2.4-2.5,4.4-4.4,6c-1.9,1.6-4.1,2.7-6.7,3.5s-5.3,1.2-8.2,1.2s-5.6-0.4-8.1-1.2
			c-2.5-0.8-4.7-2-6.6-3.5c-1.9-1.5-3.4-3.5-4.4-6s-1.6-5.3-1.6-8.5v-34.8H350.8z"/>
		<path class="st2" d="M399.8,548.1h8.4c1.4,0,2.7-0.2,3.7-0.7c1-0.4,1.8-1.1,2.3-1.9c0.5-0.8,0.8-1.8,0.8-3c0-1.8-0.6-3.1-1.8-4
			c-1.2-0.9-2.9-1.3-5-1.3H403v32.4h6.4c1.6,0,3.1-0.2,4.4-0.6c1.3-0.4,2.3-1.1,3.1-2.1c0.8-1,1.2-2.3,1.2-4c0-1.1-0.2-2-0.7-2.8
			c-0.4-0.8-1.1-1.4-1.8-1.9s-1.7-0.8-2.7-1.1c-1-0.2-2.1-0.3-3.4-0.3h-9.5v-6.8h11c2.5,0,5,0.3,7.3,0.8c2.4,0.5,4.5,1.4,6.4,2.6
			c1.9,1.2,3.5,2.7,4.6,4.6c1.2,1.8,1.7,4.1,1.7,6.7c0,3.4-0.8,6.2-2.5,8.4c-1.7,2.1-4,3.7-7,4.7s-6.6,1.5-10.7,1.5h-20.3v-51.8h19
			c3.6,0,6.8,0.5,9.5,1.4c2.7,1,4.9,2.4,6.5,4.4c1.6,2,2.4,4.4,2.4,7.4c0,2.7-0.8,5-2.4,7c-1.6,1.9-3.8,3.4-6.5,4.4
			s-5.9,1.5-9.5,1.5h-9.7L399.8,548.1L399.8,548.1z"/>
	</g>
	<g>
		<path class="st1" d="M486.8,544.5c-2.1,5.1-5.2,9.6-9.3,13.4c-1.9,1.8-3.5,5.2-6.7,4.8c-4-0.4-7.1-2.5-9.8-6.5
			c-0.4-0.6-0.5-1.3-0.3-1.9c0.7-3,1.3-4.8,1.9-6.4c0.9-2,1.4-3.6,3.1-4.4c1.6-0.4,3.5,0.6,5.1,0.4c2.2-0.2,4.6-0.4,7-0.5
			c2.5-0.1,5.1-0.4,7.8-0.5C486.5,542.9,487.1,543.7,486.8,544.5L486.8,544.5z"/>
		<path class="st1" d="M235.5,542.9c5,0.3,10,0.6,14.8,1c1.1,0.1,2.4-0.2,3.5-0.4c1.1-0.2,2,0,2.7,0.9c2.1,2.9,2.7,5.6,3.8,10
			c0.2,0.7,0,1.3-0.3,1.8c-1.6,2.5-3.3,3.9-5,4.9c-2.9,1.6-6.3,2.5-8.6,0c-2.6-3.3-5.9-5.8-8.2-9.4c-1.5-2.3-2.9-4.6-4-7.2
			C234,543.7,234.7,542.8,235.5,542.9L235.5,542.9z"/>
	</g>
</g>
</svg>
